HIERARCHY
ROOT Hips
{
    OFFSET 0.000000 97.120003 0.000000
    CHANNELS 6 Xposition Yposition Zposition Yrotation Xrotation Zrotation
    JOINT RightUpLeg
    {
        OFFSET -11.000000 -0.000000 0.000000
        CHANNELS 3 Yrotation Xrotation Zrotation
        JOINT RightLeg
        {
            OFFSET 0.000000 -45.062000 0.000000
            CHANNELS 3 Yrotation Xrotation Zrotation
            JOINT RightFoot
            {
                OFFSET 0.000000 -42.057999 0.000000
                CHANNELS 3 Yrotation Xrotation Zrotation
                End Site
                {
                    OFFSET 0.000000 -10.000000 15.120000
                }
            }
        }
    }
    JOINT LeftUpLeg
    {
        OFFSET 11.000000 -0.000000 0.000000
        CHANNELS 3 Yrotation Xrotation Zrotation
        JOINT LeftLeg
        {
            OFFSET 0.000000 -45.062000 0.000000
            CHANNELS 3 Yrotation Xrotation Zrotation
            JOINT LeftFoot
            {
                OFFSET 0.000000 -42.057999 0.000000
                CHANNELS 3 Yrotation Xrotation Zrotation
                End Site
                {
                    OFFSET 0.000000 -10.000000 15.120000
                }
            }
        }
    }
    JOINT Spine
    {
        OFFSET 0.000000 8.120000 0.000000
        CHANNELS 3 Yrotation Xrotation Zrotation
        JOINT Spine1
        {
            OFFSET 0.000000 17.980000 0.000000
            CHANNELS 3 Yrotation Xrotation Zrotation
            JOINT Spine2
            {
                OFFSET 0.000000 12.760000 0.000000
                CHANNELS 3 Yrotation Xrotation Zrotation
                JOINT Neck
                {
                    OFFSET 0.000000 19.139999 0.000000
                    CHANNELS 3 Yrotation Xrotation Zrotation
                    JOINT Neck1
                    {
                        OFFSET 0.000000 4.250000 0.000000
                        CHANNELS 3 Yrotation Xrotation Zrotation
                        JOINT Head
                        {
                            OFFSET 0.000000 4.250000 0.000000
                            CHANNELS 3 Yrotation Xrotation Zrotation
                            End Site
                            {
                                OFFSET 0.000000 19.120001 0.000000
                            }
                        }
                    }
                }
                JOINT RightShoulder
                {
                    OFFSET -2.900000 13.340000 0.000000
                    CHANNELS 3 Yrotation Xrotation Zrotation
                    JOINT RightArm
                    {
                        OFFSET -16.100000 0.000000 0.000000
                        CHANNELS 3 Yrotation Xrotation Zrotation
                        JOINT RightForeArm
                        {
                            OFFSET -28.000000 0.000000 0.000000
                            CHANNELS 3 Yrotation Xrotation Zrotation
                            JOINT RightHand
                            {
                                OFFSET -26.000000 0.000000 0.000000
                                CHANNELS 3 Yrotation Xrotation Zrotation
                                JOINT RightHandThumb1
                                {
                                    OFFSET -1.937000 -0.484000 2.518000
                                    CHANNELS 3 Yrotation Xrotation Zrotation
                                    JOINT RightHandThumb2
                                    {
                                        OFFSET -3.872000 0.000000 0.000000
                                        CHANNELS 3 Yrotation Xrotation Zrotation
                                        JOINT RightHandThumb3
                                        {
                                            OFFSET -2.690000 0.000000 0.000000
                                            CHANNELS 3 Yrotation Xrotation Zrotation
                                            End Site
                                            {
                                                OFFSET -2.537000 0.000000 0.000000
                                            }
                                        }
                                    }
                                }
                                JOINT RightInHandIndex
                                {
                                    OFFSET -3.389000 0.535000 2.080000
                                    CHANNELS 3 Yrotation Xrotation Zrotation
                                    JOINT RightHandIndex1
                                    {
                                        OFFSET -5.485000 -0.096000 1.051000
                                        CHANNELS 3 Yrotation Xrotation Zrotation
                                        JOINT RightHandIndex2
                                        {
                                            OFFSET -3.806000 0.000000 0.000000
                                            CHANNELS 3 Yrotation Xrotation Zrotation
                                            JOINT RightHandIndex3
                                            {
                                                OFFSET -2.158000 0.000000 0.000000
                                                CHANNELS 3 Yrotation Xrotation Zrotation
                                                End Site
                                                {
                                                    OFFSET -1.898000 0.000000 0.000000
                                                }
                                            }
                                        }
                                    }
                                }
                                JOINT RightInHandMiddle
                                {
                                    OFFSET -3.556000 0.544000 0.796000
                                    CHANNELS 3 Yrotation Xrotation Zrotation
                                    JOINT RightHandMiddle1
                                    {
                                        OFFSET -5.441000 -0.088000 0.330000
                                        CHANNELS 3 Yrotation Xrotation Zrotation
                                        JOINT RightHandMiddle2
                                        {
                                            OFFSET -4.153000 0.000000 0.000000
                                            CHANNELS 3 Yrotation Xrotation Zrotation
                                            JOINT RightHandMiddle3
                                            {
                                                OFFSET -2.603000 0.000000 0.000000
                                                CHANNELS 3 Yrotation Xrotation Zrotation
                                                End Site
                                                {
                                                    OFFSET -2.076000 0.000000 0.000000
                                                }
                                            }
                                        }
                                    }
                                }
                                JOINT RightInHandRing
                                {
                                    OFFSET -3.539000 0.566000 -0.136000
                                    CHANNELS 3 Yrotation Xrotation Zrotation
                                    JOINT RightHandRing1
                                    {
                                        OFFSET -4.873000 -0.023000 -0.504000
                                        CHANNELS 3 Yrotation Xrotation Zrotation
                                        JOINT RightHandRing2
                                        {
                                            OFFSET -3.619000 0.000000 0.000000
                                            CHANNELS 3 Yrotation Xrotation Zrotation
                                            JOINT RightHandRing3
                                            {
                                                OFFSET -2.511000 0.000000 0.000000
                                                CHANNELS 3 Yrotation Xrotation Zrotation
                                                End Site
                                                {
                                                    OFFSET -1.952000 0.000000 0.000000
                                                }
                                            }
                                        }
                                    }
                                }
                                JOINT RightInHandPinky
                                {
                                    OFFSET -3.324000 0.494000 -1.264000
                                    CHANNELS 3 Yrotation Xrotation Zrotation
                                    JOINT RightHandPinky1
                                    {
                                        OFFSET -4.354000 -0.023000 -1.147000
                                        CHANNELS 3 Yrotation Xrotation Zrotation
                                        JOINT RightHandPinky2
                                        {
                                            OFFSET -2.898000 0.000000 0.000000
                                            CHANNELS 3 Yrotation Xrotation Zrotation
                                            JOINT RightHandPinky3
                                            {
                                                OFFSET -1.831000 0.000000 0.000000
                                                CHANNELS 3 Yrotation Xrotation Zrotation
                                                End Site
                                                {
                                                    OFFSET -1.730000 0.000000 0.000000
                                                }
                                            }
                                        }
                                    }
                                }
                            }
                        }
                    }
                }
                JOINT LeftShoulder
                {
                    OFFSET 2.900000 13.340000 0.000000
                    CHANNELS 3 Yrotation Xrotation Zrotation
                    JOINT LeftArm
                    {
                        OFFSET 16.100000 0.000000 0.000000
                        CHANNELS 3 Yrotation Xrotation Zrotation
                        JOINT LeftForeArm
                        {
                            OFFSET 28.000000 0.000000 0.000000
                            CHANNELS 3 Yrotation Xrotation Zrotation
                            JOINT LeftHand
                            {
                                OFFSET 26.000000 0.000000 0.000000
                                CHANNELS 3 Yrotation Xrotation Zrotation
                                JOINT LeftHandThumb1
                                {
                                    OFFSET 1.937000 -0.484000 2.518000
                                    CHANNELS 3 Yrotation Xrotation Zrotation
                                    JOINT LeftHandThumb2
                                    {
                                        OFFSET 3.872000 0.000000 0.000000
                                        CHANNELS 3 Yrotation Xrotation Zrotation
                                        JOINT LeftHandThumb3
                                        {
                                            OFFSET 2.690000 0.000000 0.000000
                                            CHANNELS 3 Yrotation Xrotation Zrotation
                                            End Site
                                            {
                                                OFFSET 2.537000 0.000000 0.000000
                                            }
                                        }
                                    }
                                }
                                JOINT LeftInHandIndex
                                {
                                    OFFSET 3.389000 0.535000 2.080000
                                    CHANNELS 3 Yrotation Xrotation Zrotation
                                    JOINT LeftHandIndex1
                                    {
                                        OFFSET 5.485000 -0.096000 1.051000
                                        CHANNELS 3 Yrotation Xrotation Zrotation
                                        JOINT LeftHandIndex2
                                        {
                                            OFFSET 3.806000 0.000000 0.000000
                                            CHANNELS 3 Yrotation Xrotation Zrotation
                                            JOINT LeftHandIndex3
                                            {
                                                OFFSET 2.158000 0.000000 0.000000
                                                CHANNELS 3 Yrotation Xrotation Zrotation
                                                End Site
                                                {
                                                    OFFSET 1.898000 0.000000 0.000000
                                                }
                                            }
                                        }
                                    }
                                }
                                JOINT LeftInHandMiddle
                                {
                                    OFFSET 3.556000 0.544000 0.796000
                                    CHANNELS 3 Yrotation Xrotation Zrotation
                                    JOINT LeftHandMiddle1
                                    {
                                        OFFSET 5.441000 -0.088000 0.330000
                                        CHANNELS 3 Yrotation Xrotation Zrotation
                                        JOINT LeftHandMiddle2
                                        {
                                            OFFSET 4.153000 0.000000 0.000000
                                            CHANNELS 3 Yrotation Xrotation Zrotation
                                            JOINT LeftHandMiddle3
                                            {
                                                OFFSET 2.603000 0.000000 0.000000
                                                CHANNELS 3 Yrotation Xrotation Zrotation
                                                End Site
                                                {
                                                    OFFSET 2.076000 0.000000 0.000000
                                                }
                                            }
                                        }
                                    }
                                }
                                JOINT LeftInHandRing
                                {
                                    OFFSET 3.539000 0.566000 -0.136000
                                    CHANNELS 3 Yrotation Xrotation Zrotation
                                    JOINT LeftHandRing1
                                    {
                                        OFFSET 4.873000 -0.023000 -0.504000
                                        CHANNELS 3 Yrotation Xrotation Zrotation
                                        JOINT LeftHandRing2
                                        {
                                            OFFSET 3.619000 0.000000 0.000000
                                            CHANNELS 3 Yrotation Xrotation Zrotation
                                            JOINT LeftHandRing3
                                            {
                                                OFFSET 2.511000 0.000000 0.000000
                                                CHANNELS 3 Yrotation Xrotation Zrotation
                                                End Site
                                                {
                                                    OFFSET 1.952000 0.000000 0.000000
                                                }
                                            }
                                        }
                                    }
                                }
                                JOINT LeftInHandPinky
                                {
                                    OFFSET 3.324000 0.494000 -1.264000
                                    CHANNELS 3 Yrotation Xrotation Zrotation
                                    JOINT LeftHandPinky1
                                    {
                                        OFFSET 4.354000 -0.023000 -1.147000
                                        CHANNELS 3 Yrotation Xrotation Zrotation
                                        JOINT LeftHandPinky2
                                        {
                                            OFFSET 2.898000 0.000000 0.000000
                                            CHANNELS 3 Yrotation Xrotation Zrotation
                                            JOINT LeftHandPinky3
                                            {
                                                OFFSET 1.831000 0.000000 0.000000
                                                CHANNELS 3 Yrotation Xrotation Zrotation
                                                End Site
                                                {
                                                    OFFSET 1.730000 0.000000 0.000000
                                                }
                                            }
                                        }
                                    }
                                }
                            }
                        }
                    }
                }
            }
        }
    }
}
MOTION
Frames: 4
Frame Time: 0.011111
-1.132705 196.365707 196.995193 172.828705 155.739685 175.923706 41.622540 -57.492344 -34.558071 134.956970 131.433334 159.016754 168.863693 178.198822 -177.890045 20.220459 -50.124805 -2.881870 25.029514 54.025852 1.104274 3.234629 -22.572239 4.136908 179.394119 162.948334 179.650620 179.462708 163.293198 179.388351 177.705551 167.943588 178.524109 179.996658 -172.592331 -177.545593 180.000000 -171.374466 -177.459854 171.048553 -174.028000 -177.453979 14.668837 -3.502551 3.158078 50.134678 -31.712330 49.218212 31.471035 2.109769 -3.139813 165.690887 160.698013 168.137482 51.756271 49.247219 13.377915 179.999969 -179.999939 -172.721420 179.999985 -179.999954 -175.152451 0.000000 -0.000000 0.000000 15.000028 0.000047 29.390694 180.000000 179.999954 -155.953049 179.999985 179.999969 -163.167145 0.000000 -0.000000 0.000000 0.000017 0.000002 35.466679 180.000000 179.999985 -144.533325 179.999985 179.999985 -156.379196 0.000000 -0.000000 0.000000 170.000107 179.999908 -143.622482 0.000019 0.000134 36.377525 179.999954 179.999924 -155.772568 0.000000 -0.000000 0.000000 160.002914 179.997314 -159.536453 0.002726 0.005287 30.695290 179.999802 179.996048 -159.556915 170.845413 -172.786255 -177.921570 133.293121 -141.782898 134.801468 155.621521 -178.306519 -178.074356 4.037019 15.248937 10.643148 135.596191 129.108414 179.956573 0.000066 0.000060 -3.916564 0.000045 0.000042 -2.608431 0.000000 -0.000000 0.000000 165.000168 -179.999222 154.466248 179.999847 -179.999359 159.108749 179.999741 -179.999619 165.376114 0.000000 -0.000000 0.000000 0.000182 -0.000678 -27.581537 179.999847 -179.999313 152.418457 179.999710 -179.999634 161.630676 0.000000 -0.000000 0.000000 10.000274 -0.000893 -24.716591 179.999878 -179.999069 155.283417 179.999680 -179.999466 163.538742 0.000000 -0.000000 0.000000 20.000082 -0.000253 -23.816353 179.999969 -179.999588 144.275467 179.999832 -179.999786 156.207458
-1.085442 196.828323 197.728790 172.478226 156.387527 175.814774 40.616692 -57.262699 -32.783504 135.707550 132.349762 160.332748 169.682129 178.721481 -176.890976 19.971182 -48.537907 -2.452735 25.281586 52.947899 1.227742 3.164762 -22.263317 3.923085 179.445374 163.088181 179.675644 179.484863 163.428925 179.394501 177.808746 168.038483 178.565170 179.996979 -172.771103 -177.623138 179.999985 -171.581329 -177.539993 171.303589 -174.153534 -177.556580 14.140891 -3.183972 3.172407 48.712799 -31.411665 50.518150 33.296215 2.812661 -2.666881 166.324173 161.029495 167.747467 51.539886 49.415508 13.139236 0.000001 -0.000017 7.234003 180.000000 -179.999985 -175.182159 180.000000 180.000000 -180.000000 14.999967 -0.000070 29.365477 0.000003 -0.000074 24.026300 0.000015 -0.000037 16.818401 180.000000 180.000000 -180.000000 179.999985 -179.999985 -144.540588 180.000000 -179.999969 -144.540573 0.000016 -0.000023 23.615974 180.000000 180.000000 -180.000000 170.000000 179.999985 -143.657394 0.000004 0.000012 36.342640 180.000000 179.999985 -155.795807 180.000000 180.000000 -180.000000 159.999695 -179.999741 -160.532196 179.999710 -179.999481 -150.798248 180.000000 -179.999603 -160.551636 171.014511 -172.954422 -178.091675 134.129807 -141.800583 133.982895 154.167160 -178.820786 -178.452133 4.096553 14.838726 10.491676 135.900955 128.765366 -179.705750 0.000051 0.000022 -3.827550 0.000034 0.000011 -2.549150 0.000002 -0.000000 0.000000 165.000076 -179.999603 154.228790 179.999924 -179.999680 158.914459 179.999847 -179.999817 165.240112 0.000002 -0.000000 0.000000 0.000119 -0.000412 -27.781940 179.999908 -179.999588 152.218048 179.999817 -179.999771 161.497208 0.000002 -0.000000 0.000000 10.000188 -0.000571 -24.978571 179.999939 -179.999405 155.021423 179.999786 -179.999664 163.364288 0.000002 -0.000000 0.000000 20.000031 -0.000090 -23.899008 179.999985 -179.999847 144.151459 179.999954 -179.999939 156.124878
-1.078354 197.283859 198.500763 172.124557 157.013092 175.723343 39.220375 -57.092979 -30.757612 136.968536 133.414215 161.893951 170.203522 179.195908 -175.937576 19.812988 -46.973389 -2.121298 24.959587 51.928822 1.098300 3.526110 -21.967430 3.510943 179.493317 163.211823 179.705322 179.502701 163.548859 179.416214 177.883118 168.121384 178.619904 179.997284 -172.944443 -177.694183 179.999985 -171.782028 -177.613403 171.560318 -174.276688 -177.652985 13.644078 -2.909324 3.108679 47.741787 -30.597130 51.433113 35.133995 2.856876 -2.398327 166.978699 161.334534 167.308517 51.172215 49.510590 12.779153 0.000004 0.000003 7.221778 180.000000 180.000000 -175.190292 0.000003 0.000003 -0.000003 14.999941 -0.000092 29.392185 180.000000 -179.999908 -155.951843 0.000025 -0.000066 16.833712 0.000003 0.000003 -0.000003 179.999969 -179.999954 -144.530609 179.999985 -179.999954 -144.530624 0.000023 -0.000041 23.622614 0.000003 0.000003 -0.000003 170.000000 179.999985 -143.661545 0.000001 0.000003 36.338440 180.000000 179.999985 -155.798584 0.000003 0.000003 -0.000003 159.999832 -179.999878 -160.410843 179.999847 -179.999741 -150.616257 179.999985 -179.999802 -160.430435 171.188797 -173.073776 -178.284927 134.994598 -141.862808 133.178665 152.758774 -179.204407 -178.772278 4.179583 14.520579 10.410659 136.297867 128.509262 -179.219467 0.000037 0.000005 -3.725689 0.000020 0.000004 -2.481310 0.000000 -0.000000 0.000000 165.000046 -179.999756 154.047409 179.999954 -179.999817 158.766052 179.999924 -179.999878 165.136230 0.000000 -0.000000 0.000000 0.000076 -0.000240 -27.970608 179.999954 -179.999756 152.029404 179.999893 -179.999863 161.371567 0.000000 -0.000000 0.000000 10.000113 -0.000314 -25.238832 179.999985 -179.999680 154.761154 179.999878 -179.999817 163.190933 0.000000 -0.000000 0.000000 20.000002 -0.000029 -23.939058 0.000000 -0.000067 -35.908604 179.999985 -179.999985 156.084869
-1.059637 197.728271 199.276428 171.783234 157.620132 175.654816 37.720829 -56.895679 -28.611406 138.210922 134.720947 163.368011 170.612885 179.639130 -175.081848 20.109936 -45.356197 -1.995650 24.937193 50.861870 1.091395 3.307449 -21.609425 3.371716 179.530945 163.328949 179.734619 179.518097 163.662491 179.438324 177.945618 168.200119 178.671585 179.997559 -173.118240 -177.769775 179.999985 -171.983459 -177.691513 171.839340 -174.399872 -177.753036 13.161759 -2.659802 3.017494 46.728687 -29.796417 52.359955 36.806686 2.954374 -2.067569 167.686035 161.699478 166.819763 50.759090 49.616768 12.402722 180.000000 -179.999985 -172.778381 0.000000 -0.000000 4.809608 180.000000 -180.000000 179.999985 14.999965 -0.000048 29.469152 180.000000 -179.999954 -155.888885 0.000012 -0.000036 16.877779 180.000000 -180.000000 179.999985 179.999954 -179.999954 -144.495255 179.999985 -179.999939 -144.495270 0.000016 -0.000040 23.646143 180.000000 -180.000000 179.999985 170.000000 180.000000 -143.665222 0.000004 -0.000009 36.334789 180.000000 -179.999985 -155.801041 180.000000 -180.000000 179.999985 159.999985 -179.999985 -160.307083 179.999985 -179.999985 -150.460632 180.000000 -179.999985 -160.326782 171.351913 -173.178818 -178.466232 135.840103 -142.013519 132.420486 151.395737 -179.380554 -178.997910 4.250716 14.314961 10.355970 136.672180 128.253510 -178.750839 0.000014 0.000002 -3.622054 0.000010 -0.000001 -2.412288 0.000000 -0.000000 0.000000 165.000015 -179.999802 153.874893 179.999954 -179.999832 158.624924 179.999939 -179.999908 165.037445 0.000000 -0.000000 0.000000 0.000030 -0.000119 -28.155689 179.999985 -179.999863 151.844299 179.999954 -179.999924 161.248306 0.000000 -0.000000 0.000000 10.000043 -0.000128 -25.485331 179.999985 -179.999847 154.514664 179.999969 -179.999924 163.026764 0.000000 -0.000000 0.000000 20.000006 -0.000019 -23.967054 0.000002 -0.000030 -35.950569 179.999985 -179.999985 156.056915
